<mxfile host="app.diagrams.net" modified="2021-05-04T02:51:14.528Z" agent="5.0 (Macintosh; Intel Mac OS X 10_12_6) AppleWebKit/537.36 (KHTML, like Gecko) Chrome/89.0.4389.114 Safari/537.36" etag="si-yAahDDLkjRJ9Zmbat" version="14.6.9" type="github">
  <diagram id="SV1eyRygoCZGU9P9F6GI" name="Page-1">
    <mxGraphModel dx="624" dy="444" grid="1" gridSize="10" guides="1" tooltips="1" connect="1" arrows="1" fold="1" page="1" pageScale="1" pageWidth="850" pageHeight="1100" math="0" shadow="0">
      <root>
        <mxCell id="0" />
        <mxCell id="1" parent="0" />
        <object label="Customer" id="r_cgECwGaRm8rT9GeYfY-1">
          <mxCell style="shape=umlActor;verticalLabelPosition=bottom;verticalAlign=top;html=1;whiteSpace=wrap;" vertex="1" parent="1">
            <mxGeometry x="120" y="100" width="50" height="90" as="geometry" />
          </mxCell>
        </object>
        <mxCell id="r_cgECwGaRm8rT9GeYfY-2" value="Management" style="shape=umlActor;verticalLabelPosition=bottom;verticalAlign=top;html=1;" vertex="1" parent="1">
          <mxGeometry x="130" y="370" width="40" height="80" as="geometry" />
        </mxCell>
        <mxCell id="r_cgECwGaRm8rT9GeYfY-3" value="Create Account" style="ellipse;whiteSpace=wrap;html=1;" vertex="1" parent="1">
          <mxGeometry x="250" y="230" width="190" height="100" as="geometry" />
        </mxCell>
        <mxCell id="r_cgECwGaRm8rT9GeYfY-6" value="" style="endArrow=none;html=1;entryX=0.5;entryY=0.5;entryDx=0;entryDy=0;entryPerimeter=0;" edge="1" parent="1" source="r_cgECwGaRm8rT9GeYfY-3" target="r_cgECwGaRm8rT9GeYfY-1">
          <mxGeometry width="50" height="50" relative="1" as="geometry">
            <mxPoint x="300" y="330" as="sourcePoint" />
            <mxPoint x="350" y="280" as="targetPoint" />
          </mxGeometry>
        </mxCell>
        <mxCell id="r_cgECwGaRm8rT9GeYfY-7" value="" style="endArrow=none;html=1;exitX=0.5;exitY=0.5;exitDx=0;exitDy=0;exitPerimeter=0;entryX=0;entryY=1;entryDx=0;entryDy=0;" edge="1" parent="1" source="r_cgECwGaRm8rT9GeYfY-2" target="r_cgECwGaRm8rT9GeYfY-3">
          <mxGeometry width="50" height="50" relative="1" as="geometry">
            <mxPoint x="300" y="330" as="sourcePoint" />
            <mxPoint x="350" y="280" as="targetPoint" />
          </mxGeometry>
        </mxCell>
      </root>
    </mxGraphModel>
  </diagram>
</mxfile>
